<?xml version="1.0" encoding="UTF-8"?>
<svg id="Layer_1" xmlns="http://www.w3.org/2000/svg" version="1.1" viewBox="0 0 661.54 660.47">
  <!-- Generator: Adobe Illustrator 29.7.1, SVG Export Plug-In . SVG Version: 2.1.1 Build 8)  -->
  <defs>
    <style>
      .st0 {
        fill: #f1603b;
        stroke: #f1603b;
      }

      .st0, .st1, .st2, .st3, .st4 {
        fill-rule: evenodd;
        stroke-linejoin: round;
        stroke-width: .25px;
      }

      .st1 {
        fill: #865197;
        stroke: #865197;
      }

      .st2 {
        fill: #0e86c6;
        stroke: #0e86c6;
      }

      .st3 {
        fill: #fac312;
        stroke: #fac312;
      }

      .st4 {
        fill: #1b8f70;
        stroke: #1b8f70;
      }
    </style>
  </defs>
  <path class="st0" d="M661.08,339.74c-.02,1.67-.03,3.33-.05,5,.15,7.14-.9,14.4-1.63,21.5-2.32,22.5-6.83,44.68-13.87,66.17-32.71,99.82-113.08,180.82-213.49,212.69-25.1,7.96-50.93,13.44-77.27,14.8-7.87.41-15.74,1.44-23.62.67-.1-3.44-.21-6.89-.32-10.33.48-.37.96-.74,1.44-1.1,10.44-.92,20.95-.7,31.4-1.79,24.42-2.54,48.65-7.81,71.79-16.01,90.26-31.97,165.16-104.29,196.42-195.43,7.28-21.23,12.45-43.4,15.19-65.67,1.05-8.48,1.47-17.02,2.37-25.5.03-2,.06-4,.1-6v-16c-.04-1.67-.07-3.33-.1-5-.94-8.8-1.33-17.65-2.47-26.45-2.78-21.34-7.72-42.64-14.84-62.97-31.3-89.35-100.99-162.4-189.66-196.2-23.66-9.01-48.62-15.09-73.74-18.09-12.48-1.49-25.21-.95-37.62-2.48,0-3.61-.01-7.22-.01-10.83,6.8-1.8,22.14.28,29.67.9,28.97,2.39,56.96,8.89,84.26,18.81,107.57,39.05,190.56,138.12,210.6,250.61,4,22.46,7.12,45.83,5.45,68.7ZM496.06,162.24c-8.09-6.82-16.19-13.64-24.29-20.46-4.76,2.35-9.35,5.88-14.97,4.9-6.78-1.18-10.16-9.81-6.54-15.42,3.35-5.19,11.73-7.51,17.11-9.95,12.1-5.49,24.06-11.28,36.08-16.95,7.82-3.69,14.62-6.62,22.04-.3,4.65,3.96,5.8,9.23,4.55,15.1-1.32,6.22-3.63,12.26-5.39,18.36-2.49,8.6-4.62,17.3-7.06,25.92-1.55,5.49-3.17,16.08-6.85,20.25-6.06,6.88-17.04.61-17.46-7.45-.25-4.86,2.7-9.2,2.78-14ZM507.77,123.37c-6.17,3.29-12.33,6.58-18.5,9.87,4.5,3.63,9,7.27,13.5,10.9,1.68-6.44,5.55-14.24,5-20.77ZM329.44,158.5c2.38,1.87,1.39,11.34,1.25,14.74-3.86,1.76-7.61,1.76-10.42,5.4-.34.2-.69.4-1.03.6.01,1.33.02,2.67.03,4,.35.19.69.38,1.04.57,2.91,3.18,6.23,3.6,10.38,4.15.22,7.59.44,15.18.67,22.78-3.32-1.01-6.64-2.01-9.95-3.01-1.71-.72-3.41-1.43-5.11-2.14-9.96-3.96-19.92-7.91-29.87-11.86-1.7-.67-3.4-1.34-5.11-2-1.66-.67-3.32-1.34-4.98-2-1.75-.71-3.5-1.42-5.25-2.13-1.84-.79-3.67-1.57-5.5-2.36-.11-.43-.21-.87-.32-1.3,21.39-8.48,42.78-16.96,64.17-25.44ZM571.87,164.03c10.25-1.28,18.31,18.9,21.9,26.71,3.82,8.3,5.8,17.24,4.21,26.39-3.63,20.95-26.06,33.54-46.12,29.42-16.7-3.43-26.4-18.18-33.45-32.45-2.48-5.03-6.73-11.57-4.6-17.33,1.82-4.94,9.13-7.34,13.39-9.6,10-5.29,19.94-10.71,29.9-16.06,4.38-2.35,9.76-6.46,14.77-7.08ZM571.77,187.9c-4.1.56-7.88,3.29-11.64,5.22-8.26,4.22-16.51,8.52-24.57,13.12,1.83,8.2,8.86,18.09,17.46,20.17,11.29,2.72,23.93-4.64,25.82-16.46,1.26-7.87-3.34-15.46-7.07-22.05ZM406.42,220.88c2.76-.17,5.55-.63,8.35-.52,13.77.55,40.22,8.28,50.27,18.12,5.94,5.81,5.59,13.43,9.69,19.31,2.75,3.94,6.99,6.23,9.37,10.62,4.44,8.17,6.56,17.9,9.32,26.72,4.91,15.71,9.39,31.85,12.51,48,.12.03.23.07.35.11-2.64.85-5.29,1.69-7.93,2.54-2.62-6.35-3.76-13.71-5.33-20.4-2.64-11.2-5.95-22.4-9.46-33.36-2.2-6.86-3.73-16.08-8.23-21.85-7.2-9.22-25.58-15.98-36.44-19.63-8.07-2.72-19.09-7.07-27.55-4.26-5.34,1.77-9.24,6.07-13.05,9.98-7.99,8.2-19.1,23.39-29.02,28.17-.23-.4-.46-.79-.7-1.19.52-1.67,1.05-3.33,1.57-5-.76-.51-1.53-1.02-2.29-1.52,8.51-8.48,16.45-17.48,24.81-26.09,4.85-4.99,10.38-10.68,17.33-12.59,16.8-4.58,37.42,8.17,52.78,13.51-2.25-13.61-28.58-19.55-40-21.88-4.41-.9-9.3-1.83-13.76-.63-7.39,1.98-12.75,9.27-20.17,11.29-.38-.36-.76-.73-1.13-1.09-.05-2.5-.1-5-.14-7.5.21-.04.43-.08.65-.12,2.72-1.65,5.45-3.3,8.17-4.95.48-.36.96-.72,1.44-1.08,2.35-1.31,4.7-2.61,7.05-3.91.51-.26,1.03-.53,1.54-.8ZM352.23,286.82c-3.01.05-6.01.1-9.01.16-1.81-.15-3.63-.3-5.45-.45-.17.24-.33.48-.5.72-2-.13-4-.27-6-.4.17-1.99.33-3.97.5-5.96,3.67.07,6.59-.08,9.84,1.35-.28,1.06-.56,2.13-.84,3.19,3.82.46,7.64.93,11.46,1.39ZM360.27,286.68c-2.35.05-4.71.09-7.06.14.19-.25.37-.49.56-.74,2-.08,4-.17,6-.26.17.29.33.58.5.86ZM455.84,289.94c5.73-1.22,12.14.06,15.85,4.89,5.82,7.57,3.61,20.52-6.13,23.67-6.14,1.98-13.67.41-17.65-4.93-5.9-7.93-2.32-21.45,7.93-23.63ZM356.98,294.23c13.23-.33,14.28,21.04-.21,20.72-13.28-.3-13.06-20.38.21-20.72ZM456.98,295c-11.3,2.95-6.94,21.27,4.41,19.26,13.47-2.39,9.37-22.86-4.41-19.26ZM355.07,299.16c-6.65,1.83-3.65,12.76,3.11,11.01,7.07-1.84,4.26-13.03-3.11-11.01ZM374.03,335.1c3.9-.75,8.02-.61,11.84.43,26.71,7.32,26.28,45.78-1.29,50.9-3.65.68-7.51.54-11.12-.28-27.16-6.2-26.97-45.75.57-51.05ZM376.94,342.09c-23.86,3.25-19.43,39.61,4.29,37.13,25.25-2.64,19.95-40.44-4.29-37.13ZM155.55,343.81c.24.04.48.08.72.12.17.35.33.7.5,1.05,2.14.57,4.27,1.13,6.41,1.69-.58,6.56-2.66,13.08-3.67,19.61-.92,5.99-1.68,11.95-2.35,17.96-2.99,26.88-4.95,74.31,31.19,79.73-.03,2.61-.05,5.23-.07,7.84-18.27.36-31.61-15.69-36.96-31.59-9.01-26.81-2.79-69.2,4.23-96.41ZM554.57,456.24c-2.88-8.31-12.5-22.58-13.44-30-.66-5.1,2.94-11.92,8.67-12.31,7.11-.49,9.29,5.78,11.64,11.15,3.14,7.15,6.27,14.3,9.61,21.36,1.51,3.21,2.57,7.42,4.83,10.19,4.78,5.86,14.23,7.07,19.34,12.68,3.35,3.68,2.64,8.94.04,12.86-2.66,4-7.07,5.47-11.6,3.77-6.32-2.38-12.8-9.69-19.16-10.78-3.15-.53-6.57.23-9.73.41-8.33.5-16.67.88-25,1.49-4.98.36-11.73,1.62-13.96-4.34-2.15-5.74.9-13.11,7.08-14.77,10.17-2.75,21.39,0,31.68-1.71ZM405.77,564.74c1.33,3.24,2.67,6.49,4,9.73,7.91-3.09,18.27-7.96,26.58-9.19,3.61-.53,7.52,1.6,8.68,5.18,1.43,4.4-.42,8.95-4.46,11.12-8.03,4.3-17.78,5.23-25.72,9.66,1.31,3.53,2.61,7.06,3.92,10.59,7.04-1.85,13.97-4.72,20.76-7.39,3.77-1.48,7.75-3.67,11.8-4.18,5.58-.7,10.14,4.59,9.8,9.96-.35,5.51-5.17,7.57-9.65,9.16-10.14,3.6-20.27,7.22-30.44,10.71-4.68,1.61-9.44,4.11-14.3,1.74-5.33-2.6-6.38-9.77-8.12-14.89-3.81-11.18-7.9-22.26-11.62-33.48-1.48-4.47-4.1-9.45-3.95-14.22.19-6.18,5.58-7.96,10.54-9.76,10.26-3.72,20.46-7.6,30.75-11.22,4.71-1.65,9.67-4.19,13.69.21,3.18,3.48,4.33,10.48.16,13.71-1.96,1.52-4.8,2.14-7.09,2.97-8.26,2.99-17.74,5.26-25.33,9.59Z"/>
  <path class="st4" d="M336.89,49.83v10.41c6.51,2.17,14.88,1.33,21.88,1.77,3.07.19,7.25-.03,9.81,1.9,2.57,1.94,2.99,5.33,2.71,8.33-.49,5.42-4.48,7.43-9.52,7.41-8.79-.06-17.64-1.84-26.42-1.52v11.11c11,2.96,23.07.58,34.3,2.78,5.82,1.14,8.42,6.56,6.41,12.01-1.94,5.24-7.48,5.87-12.29,5.71-11.67-.38-23.32-1.68-35-2.07-4.6-.16-10.55-.29-13.32-4.62-3.34-5.22-1.09-14.1-.46-19.85,1.26-11.46,1.95-23.43,2.23-34.96.14-5.7-.57-12.64,5.58-15.46,4.76-2.19,10.94-.68,15.97-.28,9.95.8,20.08.4,30,1.44,4.36.46,8.69,2.53,9.36,7.34.78,5.61-2.79,9.91-8.36,10.42-10.53.96-22.21-1.79-32.88-1.87ZM187.77,143.04c-8.1,7.07-16.21,14.13-24.31,21.2,1.34,4.4,4.12,10.03,3.36,14.69-1.21,7.41-10.95,11.65-16.63,6.38-4.74-4.39-5.18-13.12-7.05-19.02-4.18-13.23-8.77-26.39-12.16-39.86-2.12-8.45-3.72-15.47,3.83-21.67,6.65-5.46,13.43-2.54,20.29.6,13.03,5.98,26.09,11.89,39.1,17.93,4.83,2.25,12.98,4.35,16.11,8.91,4.26,6.19-1.35,15.86-8.65,16.13-4.69.18-9.83-3.27-13.89-5.29ZM150.77,124.55c.2,4.57,4.05,18.15,7,21.15,3.99-3.49,7.99-6.97,11.98-10.46-4.02-4.9-13.04-8.33-18.98-10.69ZM406.05,192.74c-.13,3.67-.27,7.33-.4,11-.26,5.98-.51,11.96-.77,17.94-2.35,1.3-4.7,2.6-7.05,3.91-.26-6.95-.51-13.89-.76-20.84-.1-2.93-.2-5.86-.3-8.78-2.89,1.2-5.77,2.4-8.66,3.61-1.5,2.68-.91,6.39-.94,9.66-.06,7.28-.98,15.41.4,22.5.04,2.5.09,5,.14,7.5.37.36.75.73,1.13,1.09-2.72,1.89-5.86,1.42-9.07,1.43-6.33.01-12.67.01-19,.01-20.33,0-40.67-.04-61-.01-6.45.01-21.45,1.44-26.69-1.11.14-3.24.28-6.48.42-9.71.19-.4.37-.8.55-1.2,0-9.68,0-19.36,0-29.04-1.72-2.45-5.27-3.16-8.02-4.25-6.15-2.46-12.27-5-18.4-7.5-3.38-1.38-8.51-2.51-9-6.93-.56-5.01,5.15-6.35,8.72-7.75,10.5-4.1,20.95-8.34,31.39-12.62,11.87-4.86,23.87-9.43,35.8-14.17,4.21-1.68,12.06-6.12,16.35-6.28,3.48-.13,17.11,6.56,21.18,8.17,16.97,6.69,33.98,13.31,50.87,20.17,4.74,1.93,20,5.98,20.12,11.72.15,6.8-12.73,8.04-17.02,11.48ZM265.27,183.94c.11.43.21.87.32,1.3,1.83.79,3.66,1.57,5.5,2.36,1.75.71,3.5,1.42,5.25,2.13.14.3.29.6.43.9,1.52.36,3.04.73,4.55,1.1.15.33.3.67.45,1,1.55.33,3.11.66,4.66,1,9.95,3.95,19.91,7.9,29.87,11.86,1.7.71,3.4,1.42,5.11,2.14,3.31,1,6.63,2,9.95,3.01,8.7-2.1,17.23-6.53,25.59-9.79,4.81-1.88,10.44-3.37,14.31-6.71-6.73-1.89-13.59-3.23-20.42-4.71-4.17-.91-8.77-2.55-13.05-2.64-2.38-.05-4.75.73-7.1,1.07-4.15-.55-7.47-.97-10.38-4.15,0-1.72-.03-3.44-.04-5.17,2.81-3.64,6.56-3.64,10.42-5.4.14-3.4,1.13-12.87-1.25-14.74,2.09-1.77,1.6-4.01,1.33-6.53-24.76,9.76-49.53,19.51-74.29,29.27,2.56,1.38,5.87,3.38,8.79,2.7ZM405.31,181.24c-2.01-.67-4.03-1.33-6.04-2,1.17.71,2.33,1.42,3.5,2.13-1.89.95-3.78,1.91-5.66,2.87,2.73-1,5.47-2,8.2-3ZM390.88,187.19h-6.61,6.61ZM284.08,232.74c.23.27.46.53.69.8,1.85-.05,3.69-.1,5.54-.15,4-.05,8.01-.1,12.01-.15.16-7.33.31-14.67.47-22-4.04-1.57-8.08-3.15-12.12-4.72-2.15-.87-4.3-1.73-6.46-2.6-.04,9.61-.09,19.21-.13,28.82ZM358.13,210.94c-9.2,3.77-18.39,7.53-27.58,11.3.11,3.67.21,7.33.31,11,9.11.09,18.22.17,27.33.26,6.52.13,13.05.26,19.58.39,1.74-5.91,1.52-24.23,0-30.32-6.55,2.46-13.1,4.91-19.64,7.37ZM270.46,252.59c9.02,5.73,17.04,20.58,26.58,25.87,8.7,4.82,23.58,1.79,33.4,2.5-.01,1.96-.02,3.93-.03,5.9-3.97.92-8.52.42-12.64.4-7.57-.03-16.5,1.02-23.6-1.96-4.68-1.97-8.04-5.9-11.52-9.44-5.49-5.58-12.24-11.26-16.47-17.83.53-.09,1.06-.18,1.59-.27.9-1.72,1.79-3.44,2.69-5.17ZM304.9,294.2c13.32-.28,13.38,20.76-.13,20.7-13.59-.07-13.21-20.41.13-20.7ZM309.27,308.24c3.59-7.77-4.71-12.9-9.79-6-.35,6.77,3.81,10.51,9.79,6ZM62.05,317.11c20.21-4.46,27.91,25.98,8.53,31.38-21.74,6.05-29.91-26.66-8.53-31.38ZM427.05,318.11c7.11-1.96,14.49.82,18.14,7.26,4.11,7.26.65,18.51-7.7,21.03-4.92,1.49-11.08,1.18-15.21-2.16-8.85-7.15-6.76-22.95,4.77-26.13ZM428.93,322.95c-12.57,3.1-5.86,23.55,6.65,18.58,11.34-4.51,5.12-21.47-6.65-18.58ZM12.14,330.78c.98,12.14.84,24.32,2.35,36.44,3.76,30.19,11.31,59.67,22.97,87.83,35.1,84.75,111.14,152.35,198.41,179.51,32.76,10.19,62.29,13.23,96.4,14.58-.48.36-.96.73-1.44,1.1.11,3.44.22,6.89.32,10.33-7.51.61-14.9-.19-22.38-.72-26.95-1.91-53.41-6.47-79.14-14.89-109.92-35.92-195.35-127.26-220.66-240.5C3.92,381.87-.74,354.65.48,331.51c3.75.34,8.2,1.1,11.66-.73ZM331.18,405.91c16.06-1.09,32.49-.18,48.59-.18,12.51,0,24.72-1.09,35.42,6.57,10.77,7.7,21.97,22.24,30.46,32.6,7.07,8.64,15.09,17.57,26.67,19.14.28,2.52.57,5.03.86,7.55-11.59.92-19.77-5.99-27.36-13.9-8-8.32-15.38-17.35-23.01-26.02-4.21-4.79-8.08-9.99-13.6-13.37-8.8-5.38-18.53-4.55-28.44-4.55-16.46,0-33.19.79-49.62-.18.01-2.55.02-5.1.03-7.66ZM164.01,499.21c15.09-.65,30.32,8.51,37.89,21.37,3.08,5.23,6.26,12.18,2.54,17.86-3.23,4.94-10.45,5.07-14.63,1.27-4.36-3.97-4.12-11.09-8.65-15.36-10.75-10.15-28.77-5.8-33.62,8.11-3.87,11.06,2.24,22.59,13.4,26.01,4.42,1.36,10.14.12,13.76,3.33,7.35,6.5,2.78,16.74-6.25,17.44-4.21.33-8.85-.96-12.79-2.32-18.21-6.32-31.45-24-29.34-43.68,2.06-19.26,18.86-33.22,37.69-34.03Z"/>
  <path class="st2" d="M331.1.72c0,3.61.01,7.22.01,10.83-12.3,1.57-24.93,1.13-37.29,2.53-23.37,2.65-46.68,7.91-68.81,15.97C135.38,62.69,62.06,135.14,30.62,225.52c-6.98,20.06-12.23,40.72-15.22,61.73-2.06,14.48-2.05,29.02-3.26,43.53-3.46,1.83-7.91,1.07-11.66.73-.44-6.46.16-12.84.61-19.27,1.51-21.48,4.78-42.25,9.95-63.12C36.66,145.67,116.62,57.22,216.58,20.51c27.12-9.96,55.34-16.73,84.19-18.86,9.72-.72,20.68-2.57,30.33-.93ZM267.77,74.64c-1.38,6.89-2.65,13.82-4.33,20.65-1,4.09-2.34,8.75-6.92,10.16-8.58,2.65-21.5-11.96-27.75-17.27-.19,7.79,8.31,22.49,9.54,31.07,1.04,7.22-4.36,12.49-11.54,11.8-7.13-.68-8.54-7.2-10.37-12.91-4.21-13.12-8.55-26.23-12.65-39.38-1.72-5.5-4.9-12-1.37-17.37,3.39-5.15,11.74-7.07,17.11-4.38,5.45,2.73,9.9,7.63,14.4,11.63,4.54,4.05,9.29,7.86,13.88,11.85,3.14-7.84,4.42-17.18,6.17-25.46.74-3.52,1.1-7.16,2.72-10.43,2.87-5.78,10.7-9.25,16.82-6.53,4.84,2.15,6.48,9.44,8.08,13.94,4.7,13.21,9.63,26.29,14.5,39.43,1.89,5.11,4.75,11.06.06,15.63-4.21,4.1-12.01,5.28-15.79.03-1.77-2.46-2.48-5.7-3.46-8.52-2.78-7.97-5.42-16.35-9.1-23.94ZM126.07,205.24c-2.43-1.54-4.87-3.08-7.3-4.63-4.12,4.96-6.91,15.38-15.81,9.96-1.17-.71-2.4-1.78-3.05-3-3.72-6.93,4.92-16.7,8.28-22.45,1.35-2.33,2.74-5.4,5.2-6.77,4.84-2.68,9.71.45,13.93,2.83,9.48,5.38,17.81,8.23,17.47,20.82-.48,17.79-11.41,36.69-28.35,43.36-21.71,8.56-49.16-5.59-53-29.16-2.45-15.08,3.77-31.52,14.89-41.92,3.74-3.5,9.89-8.23,15.35-7.32,5.79.95,8.82,10.27,6.35,15.04-1.8,3.49-7.42,5.15-10.37,7.66-7.35,6.27-10.15,17.77-5.12,26.32,11.85,20.12,39.65,11.46,41.53-10.74ZM405.31,181.24c-2.73,1-5.47,2-8.2,3,1.88-.96,3.77-1.92,5.66-2.87-1.17-.71-2.33-1.42-3.5-2.13,2.01.67,4.03,1.33,6.04,2ZM390.88,187.19h-6.61,6.61ZM406.05,192.74c-.02,3.67-.04,7.33-.07,11h-.33c.13-3.67.27-7.33.4-11ZM284.21,203.92c-.04,9.61-.09,19.21-.13,28.82.04-9.61.09-19.21.13-28.82ZM358.13,210.94c.02,7.52.04,15.04.06,22.56-9.11-.09-18.22-.17-27.33-.26-.1-3.67-.2-7.33-.31-11,9.19-3.77,18.38-7.53,27.58-11.3ZM273.5,230.94c-.14,3.23-.28,6.47-.42,9.71-7.31-2.66-12.97-9.62-20.58-11.55-4.46-1.13-9.31-.19-13.73.69-12.5,2.49-36,7.86-40,21.72,4.58-1.28,8.83-3.7,13.25-5.49,11.58-4.68,26.96-11.32,39.58-8.04,4.23,1.1,8,3.96,11.31,6.66,2.82,2.29,5.85,4.79,7.55,7.95-.9,1.73-1.79,3.45-2.69,5.17-.53.09-1.06.18-1.59.27-5.33-4.09-9.47-10.55-16.46-12.19-5.63-1.32-11.6.33-16.98,1.89-11.63,3.4-22.96,7.51-33.59,13.4-4.49,2.49-9.61,5.1-12.75,9.28-4.08,5.44-5.31,13.29-7.34,19.65-5.76,18.01-10.27,36.29-15.13,54.54-2.55-.23-5.11-.45-7.66-.67-.24-.04-.48-.08-.72-.12,3.4-16.08,7.94-31.92,12.51-47.72,2.69-9.3,5.09-19.68,9.84-28.2,2.29-4.1,6.25-6.45,8.82-10.2,4.28-6.24,4.81-14,10.49-19.51,10.86-10.54,36.76-17.82,51.56-17.72,10.17.07,15.64,8.05,24.73,10.48ZM223.98,276.02c3.83-.8,8.36-.69,12.12.32,26.73,7.17,26.31,46.13-1.42,51.18-3.68.67-7.63.54-11.24-.36-26.61-6.63-26.42-45.51.54-51.14ZM227.97,283.12c-24.55,2.86-20.7,39.63,3.74,37.27,24.34-2.35,20.15-40.05-3.74-37.27ZM398.94,290c19.8-4.89,27.38,23.16,9.65,28.53-20.27,6.14-28.17-23.95-9.65-28.53ZM400.04,295.08c-12.11,3.61-5.38,23.4,7.49,18.37,11.2-4.38,5.08-22.13-7.49-18.37ZM585.91,376.97c17.15-3.74,21.59,21.54,5.68,24.48-15.04,2.77-20.72-21.19-5.68-24.48ZM304.95,558.96c4.84-1.38,10.83-.54,15.82-.54,13.74,0,27.08-.04,38.39,8.9,17.88,14.13,16.73,44.13-.98,57.87-11.57,8.97-27.52,8.67-41.41,8.2-5.02-.17-12.47.67-15.93-3.74-2.44-3.11-1.96-7.71-1.94-11.41.05-7.33-.03-14.67,0-22,.03-8.99-.21-18.02.08-27,.14-4.37,1.16-8.91,5.97-10.28ZM319.48,615.09c7.22,1.06,17.27,1.23,23.64-2.98,10.78-7.13,11.01-25.55-.07-32.7-6.46-4.16-16.26-3.93-23.57-3.02v38.7Z"/>
  <path class="st1" d="M320.27,178.64c.01,1.73.03,3.45.04,5.17-.35-.19-.69-.38-1.04-.57-.01-1.33-.02-2.67-.03-4,.34-.2.69-.4,1.03-.6ZM271.09,187.6c1.75.71,3.5,1.42,5.25,2.13-1.75-.71-3.5-1.42-5.25-2.13ZM276.34,189.73c1.66.66,3.32,1.33,4.98,2-1.51-.37-3.03-.74-4.55-1.1-.14-.3-.29-.6-.43-.9ZM281.32,191.73c1.71.66,3.41,1.33,5.11,2-1.55-.34-3.11-.67-4.66-1-.15-.33-.3-.67-.45-1ZM388.11,199.58c.04,10.68.07,21.36.11,32.04-.22.04-.44.08-.65.12-1.38-7.09-.46-15.22-.4-22.5.03-3.27-.56-6.98.94-9.66ZM274.06,200.7c0,9.68,0,19.36,0,29.04,0-9.68,0-19.36,0-29.04ZM358.19,233.5c-.02-7.52-.04-15.04-.06-22.56,6.54-2.46,13.09-4.91,19.64-7.37,1.52,6.09,1.74,24.41,0,30.32-6.53-.13-13.06-.26-19.58-.39ZM405.65,203.74h.33c.15,5.71.29,11.43.44,17.14-.51.27-1.03.54-1.54.8.26-5.98.51-11.96.77-17.94ZM397.07,204.75c.25,6.95.5,13.89.76,20.84-.48.36-.96.72-1.44,1.08.22-7.31.45-14.61.68-21.92ZM316.3,205.59c1.7.71,3.4,1.42,5.11,2.14-1.71-.72-3.41-1.43-5.11-2.14ZM70.02,265.04c15.57-3.51,21.28,21.48,5.64,24.49-16.36,3.14-21.31-20.94-5.64-24.49ZM592.91,316.96c20.92-4.12,26.96,27.25,7.81,31.73-21.88,5.12-28.35-27.7-7.81-31.73ZM294.91,348.24c4.95.9,13.07-1.28,17.25,2.1,4.35,3.51,4.09,19.88-.82,22.95-4.54,2.83-11.13,1.06-16.12,1.95-.06,5.55.43,11.94-2.06,17-4.83,2.93-20.48,4.84-23.28-1.64-1.97-4.58-.21-10.94-1.11-15.79-4.88-.06-12.3,1.38-16.59-1.5-4.33-2.9-4.26-20.12.15-23.02,4.19-2.76,11.69-1.47,16.44-1.57.89-4.85-1.29-13,1.91-17.07,3.17-4.01,20.15-4.25,22.95.26,2.64,4.23,1.27,11.6,1.28,16.33ZM288.77,335.04c-4.48-1.4-9.05-1.63-13.42.2-.6,6-1.2,12-1.8,18-5.72,1.2-13.25-1.05-18.32,2-1.74,4.48-1.3,9.83.54,14.22h18.6v18.78c4.53,1.83,9.69,1.82,14.4.44.56-6.4,1.12-12.81,1.67-19.21h17.33c2.46-4.47,2.31-9.75,1-14.61-6.1-.54-12.2-1.08-18.3-1.62-.57-6.07-1.13-12.13-1.7-18.2ZM156.27,343.93c2.55.22,5.11.44,7.66.67l-.75,2.07c-2.14-.56-4.27-1.12-6.41-1.69-.17-.35-.33-.7-.5-1.05ZM331.18,405.91c0,2.56-.02,5.11-.03,7.66-16.17,1.62-33.12.22-49.38.23-9.93,0-19.6-.71-28.48,4.48-6.72,3.93-11.55,10.6-16.56,16.39-6.66,7.67-13.47,15.23-20.34,22.71-7.39,8.03-16.51,15.78-28.11,14.43.02-2.61.04-5.23.07-7.84,11.52-1.07,16.35-6.76,23.9-14.74,10.27-10.87,22.41-28.54,34.2-36.87,10.93-7.73,23.59-6.64,36.32-6.65,15.98-.02,32.51-1.23,48.41.2ZM92.46,496.24c-5.58-9.33-11.15-18.67-16.72-28-4.76-.24-9.64,1.71-14.36-.06-7.16-2.69-8.97-13.82-1.99-17.87,5.15-2.98,15.4-3,21.38-3.65,13.37-1.47,26.64-3.5,40-4.88,6.5-.67,11.77.95,15.36,6.63,4.29,6.8,1.59,13.22-2.27,19.43-7.68,12.33-15.49,24.57-22.94,37.06-2.79,4.68-5.35,11.93-10.32,14.7-7.09,3.95-14.88-3.13-14.65-10.36.16-4.9,3.95-9.07,6.51-13ZM115.67,461.24c-5.21.02-17.67,1.22-21.66,4,2.92,4.89,5.84,9.78,8.76,14.68,4.3-6.23,8.6-12.45,12.9-18.68ZM514.77,517.92c.19,8.66,3.85,17.58,3.37,26.32-.24,4.4-3.88,8.84-8.42,9.35-7.49.84-18.58-6.36-25.95-8.52,3.95,7.13,10.2,13.92,15.17,20.47,1.41,1.87,3.24,3.72,4,5.99,1.98,5.94-.41,13.16-7.17,14.33-6.53,1.14-10.14-3.95-13.55-8.57-8.22-11.1-16.39-22.23-24.62-33.33-3.36-4.53-8.45-9.42-7.1-15.56,1.31-6.02,8.39-9.94,14.21-9.42,3.49.31,7.01,2.29,10.2,3.58,7.85,3.17,15.79,6.81,23.86,9.32.79-8.79-2.49-21.53-3.64-30.64-.3-2.36-1.02-4.58-.87-7,.34-5.76,5.76-11.1,11.51-11.58,6.69-.55,10.24,5.62,14.02,10.05,8.89,10.43,17.35,21.33,26.5,31.53,4.01,4.46,8.6,9.34,5.56,15.6-2.73,5.61-10.24,7.67-15.26,4.04-2.79-2.02-4.87-5.28-6.99-7.95-4.78-6.02-9.52-12.44-14.83-18.01Z"/>
  <path class="st3" d="M413.77,101c-4.3,4.36-4.07,12.48-9.69,16.07-7.54,4.81-17.04-2.55-15.86-10.83.74-5.22,4.42-10.75,6.45-15.61,3.84-9.17,7.63-18.37,11.4-27.57,1.97-4.79,3.57-11.92,7.78-15.26,4.77-3.79,10.19-1.19,15.12.7,11.59,4.44,26.39,8.52,33.69,19.37,9.64,14.33.73,36.06-16.01,39.63-11.8,2.51-22.13-2.31-32.88-6.5ZM420.1,84.24c6.76,3.87,20.99,10.36,25.31.05,4.1-9.8-11.24-16.1-18.57-17.05-2.24,5.67-4.49,11.33-6.74,17ZM331.36,210.74c-.23-7.6-.45-15.19-.67-22.78,2.35-.34,4.72-1.12,7.1-1.07,4.28.09,8.88,1.73,13.05,2.64,6.83,1.48,13.69,2.82,20.42,4.71-3.87,3.34-9.5,4.83-14.31,6.71-8.36,3.26-16.89,7.69-25.59,9.79ZM290.67,206.52c4.04,1.57,8.08,3.15,12.12,4.72-.16,7.33-.31,14.67-.47,22-4,.05-8.01.1-12.01.15.12-8.96.24-17.91.36-26.87ZM427.02,262.07c19.33-5.22,27.7,22.02,10.44,28.27-19.97,7.23-29.56-23.11-10.44-28.27ZM586.89,264.99c16.34-2.9,20.29,22.04,4.84,24.59-16.73,2.76-20.6-21.78-4.84-24.59ZM428.89,266.98c-12.63,3.09-6.65,23.66,6.76,18.62,10.91-4.09,5.55-21.63-6.76-18.62ZM367.85,276.72c.76.5,1.53,1.01,2.29,1.52-.52,1.67-1.05,3.33-1.57,5,.24.4.47.79.7,1.19l-9,2.25c-.17-.28-.33-.57-.5-.86-2,.09-4,.18-6,.26-.19.25-.37.49-.56.74h-.98c-3.82-.46-7.64-.93-11.46-1.39.28-1.06.56-2.13.84-3.19-3.25-1.43-6.17-1.28-9.84-1.35-.17,1.99-.33,3.97-.5,5.96-.29,0-.57,0-.86.01.01-1.97.02-3.94.03-5.9,12.28-1.24,26.47,2.89,37.41-4.24ZM343.22,286.98c-1.98.09-3.97.18-5.95.27.17-.24.33-.48.5-.72,1.82.15,3.64.3,5.45.45ZM649.44,317.74c.03,1.67.06,3.33.1,5-.04-1.67-.07-3.33-.1-5ZM649.54,338.74c-.04,2-.07,4-.1,6,.03-2,.06-4,.1-6ZM661.08,339.74c-.02,1.67-.03,3.33-.05,5,.02-1.67.03-3.33.05-5ZM505.93,343.13c7.79,27.89,13.61,70.41,4.23,98.06-5.21,15.37-19.19,31.76-36.98,30.4-.29-2.52-.58-5.03-.86-7.55,36.66-4.16,36.28-52.74,32.35-80.04-.85-5.92-1.48-11.85-2.46-17.76-1.13-6.8-3.21-13.62-3.86-20.46,2.64-.85,5.29-1.69,7.93-2.54-.12-.04-.23-.08-.35-.11ZM69.06,377.12c15.01-4.17,22.51,17.24,9.42,23.27-16.48,7.6-25.77-18.72-9.42-23.27ZM248.77,608c-10.33-3.61-20.67-7.21-31-10.82-3.11,3.22-5.97,7.7-10.5,9.05-7.18,2.14-14.61-3.26-13.04-10.97,1.1-5.4,7.9-10.64,11.58-14.48,9.29-9.7,18.51-19.49,27.67-29.32,5.4-5.78,10.49-11.07,19.02-8.37,9,2.85,9.9,11.01,10.8,19.15,1.5,13.7,3.59,27.31,5.15,41,.64,5.53,3.19,13.03,1.25,18.4-2.87,7.97-13.47,6.84-17.77.91-3.07-4.25-2.4-9.66-3.16-14.55ZM244.77,566.91c-4.12,3.08-11.85,11.68-13.64,16.33,5.21,1.82,10.43,3.63,15.64,5.45-.67-7.26-1.33-14.52-2-21.78Z"/>
</svg>